<svg width="1024" height="1024" viewBox="0 0 1024 1024" fill="none" xmlns="http://www.w3.org/2000/svg">
<path d="M1024 512C1024 794.77 794.77 1024 512 1024C229.23 1024 0 794.77 0 512C0 229.23 229.23 0 512 0C794.77 0 1024 229.23 1024 512Z" fill="#C7A3E4"/>
<path d="M305.51 220.236C352.835 354.329 462.633 544.12 510.474 658.371C436.254 691.076 298.428 792.464 251.104 658.371C138.538 513.724 216.865 122.757 223.431 135.335C228.121 120.66 290.713 178.31 305.51 220.236Z" fill="#A0FFB4"/>
<path d="M511.881 659.419C342.094 764.76 305.51 779.434 252.98 743.797C185.44 697.977 151.171 678.057 106.644 499.573C77.0958 381.13 45.6712 338.155 64.9012 270.548C178.405 324.529 458.412 533.639 511.881 659.419Z" fill="#A0FFB4"/>
<path d="M479.049 819.789C414.793 926.702 380.085 948.713 305.51 948.713C252.98 948.713 235.169 948.713 252.98 874.818C281.121 758.057 392.749 637.932 512.35 659.419C506.721 708.159 551.748 664.136 479.049 819.789Z" fill="#A0FFB4"/>
<path d="M718.49 221.523C671.165 355.616 561.367 545.407 513.526 659.657C587.746 692.363 725.572 793.75 772.896 659.657C885.462 515.01 807.135 124.043 800.569 136.621C795.879 121.947 733.287 179.596 718.49 221.523Z" fill="#A0FFB4"/>
<path d="M512.119 660.706C681.906 766.046 718.49 780.721 771.02 745.083C838.56 699.263 872.829 679.344 917.356 500.86C946.904 382.417 978.329 339.442 959.099 271.835C845.595 325.816 565.588 534.925 512.119 660.706Z" fill="#A0FFB4"/>
<path d="M544.951 821.075C609.207 927.988 643.915 950 718.49 950C771.02 950 788.831 950 771.02 876.104C742.879 759.343 631.251 639.218 511.65 660.706C517.279 709.445 472.252 665.422 544.951 821.075Z" fill="#A0FFB4"/>
</svg>
